<?xml version="1.0" encoding="UTF-8" ?>
<!DOCTYPE svg PUBLIC "-//W3C//DTD SVG 1.1//EN" "http://www.w3.org/Graphics/SVG/1.1/DTD/svg11.dtd">
<svg width="1696pt" height="529pt" viewBox="0 0 1696 529" version="1.1" xmlns="http://www.w3.org/2000/svg">
<g id="#ffffffff">
</g>
<g id="#fe0000ff">
<path fill="#fe0000" opacity="1.00" d=" M 332.67 79.67 C 360.69 64.26 388.28 48.06 416.68 33.37 C 373.54 71.39 329.35 108.25 285.92 145.94 C 279.24 152.25 278.30 163.08 283.33 170.67 C 312.56 219.99 341.77 269.32 370.97 318.66 C 346.71 320.07 322.42 321.08 298.15 322.22 C 272.36 277.90 246.36 233.71 220.51 189.44 C 214.94 180.60 211.52 169.36 215.06 159.12 C 218.59 148.32 228.07 141.15 237.18 135.15 C 268.48 115.76 300.48 97.54 332.67 79.67 Z" />
<path fill="#fe0000" opacity="1.00" d=" M 317.08 353.97 C 341.51 352.83 365.96 352.00 390.38 350.63 C 393.42 357.66 396.25 365.21 395.30 373.01 C 394.06 380.11 389.78 386.90 383.32 390.32 C 317.28 428.91 251.65 468.24 185.44 506.53 C 230.55 467.88 276.44 430.12 321.80 391.77 C 326.15 386.99 330.44 379.95 327.53 373.39 C 324.24 366.82 320.43 360.51 317.08 353.97 Z" />
</g>
<g id="#00138eff">
<path fill="#00138e" opacity="1.00" d=" M 1196.52 135.40 C 1205.01 128.68 1213.99 122.32 1223.26 116.67 C 1223.89 140.71 1223.15 164.79 1223.63 188.82 C 1223.85 194.54 1229.68 197.96 1235.00 197.01 C 1241.50 196.09 1249.11 198.94 1254.85 195.18 C 1252.03 188.15 1245.42 183.83 1240.52 178.38 C 1239.87 176.77 1241.44 175.45 1242.14 174.15 C 1246.97 167.44 1251.54 160.54 1256.40 153.85 C 1267.41 164.67 1270.82 181.06 1270.21 196.01 C 1269.56 205.08 1269.17 214.96 1263.57 222.57 C 1257.86 230.03 1247.83 231.73 1239.01 232.00 C 1229.17 231.95 1218.32 233.04 1209.71 227.27 C 1201.84 222.04 1199.13 211.99 1199.28 203.02 C 1199.33 180.46 1197.36 157.84 1196.52 135.40 Z" />
<path fill="#00138e" opacity="1.00" d=" M 1436.69 139.57 C 1457.17 132.59 1477.79 126.02 1498.31 119.15 C 1497.22 128.81 1496.14 138.48 1495.25 148.16 C 1484.24 151.93 1473.04 155.09 1461.99 158.71 C 1468.93 166.86 1475.38 176.12 1476.79 187.00 C 1478.90 200.37 1476.59 216.37 1464.98 224.90 C 1453.23 233.81 1437.71 231.89 1423.91 231.95 C 1415.67 231.88 1409.12 225.72 1405.78 218.63 C 1390.46 232.52 1368.97 236.11 1348.98 236.00 C 1337.13 235.56 1323.40 233.37 1316.16 222.85 C 1308.40 210.81 1309.13 195.16 1312.95 181.88 C 1314.05 178.44 1316.22 172.92 1320.78 174.18 C 1324.38 175.67 1324.15 180.16 1324.50 183.40 C 1324.79 188.96 1327.15 194.94 1332.44 197.49 C 1342.75 202.86 1354.77 202.00 1366.02 201.91 C 1382.68 201.11 1400.81 197.41 1412.49 184.49 C 1414.88 182.39 1417.85 177.74 1421.38 180.58 C 1424.30 185.51 1420.25 190.87 1419.02 195.74 C 1423.42 197.75 1428.33 196.78 1433.01 196.98 C 1441.30 196.80 1449.93 197.68 1457.88 194.77 C 1457.68 193.20 1458.02 191.41 1456.90 190.13 C 1450.10 180.63 1440.49 173.74 1432.10 165.77 C 1433.51 157.02 1434.97 148.27 1436.69 139.57 Z" />
<path fill="#00138e" opacity="1.00" d=" M 1607.91 132.49 C 1609.67 127.68 1614.78 125.14 1618.12 121.46 C 1621.82 124.83 1625.89 127.92 1628.93 131.96 C 1625.57 135.35 1622.15 138.67 1618.76 142.02 C 1614.88 139.15 1611.63 135.55 1607.91 132.49 Z" />
<path fill="#00138e" opacity="1.00" d=" M 1597.95 148.93 C 1601.29 145.37 1604.88 142.06 1608.27 138.53 C 1611.81 141.37 1614.86 144.76 1618.18 147.87 C 1621.50 144.80 1624.64 141.53 1628.02 138.51 C 1631.71 141.86 1635.27 145.34 1638.73 148.93 C 1635.45 152.34 1632.27 155.86 1628.72 158.97 C 1624.67 156.90 1621.94 152.59 1618.17 149.92 C 1615.06 153.04 1612.03 156.24 1608.93 159.37 C 1604.97 156.21 1601.57 152.44 1597.95 148.93 Z" />
<path fill="#00138e" opacity="1.00" d=" M 1341.98 157.01 C 1345.14 153.21 1348.65 149.73 1352.14 146.23 C 1355.63 149.14 1358.76 152.44 1362.11 155.51 C 1365.22 152.50 1368.06 149.24 1371.15 146.21 C 1375.07 149.53 1378.71 153.18 1382.18 156.97 C 1378.82 160.59 1375.28 164.02 1371.81 167.52 C 1368.42 164.63 1365.45 161.32 1362.18 158.31 C 1359.02 161.38 1355.90 164.49 1352.73 167.53 C 1348.92 164.26 1345.51 160.57 1341.98 157.01 Z" />
<path fill="#00138e" opacity="1.00" d=" M 762.49 153.91 C 773.65 164.53 776.96 181.09 776.35 195.98 C 775.80 204.88 775.33 214.51 770.09 222.10 C 765.14 229.08 756.18 231.31 748.09 231.85 C 739.80 232.43 730.14 232.59 723.95 226.06 C 714.61 216.67 714.01 202.14 716.78 189.90 C 708.20 192.08 699.49 194.87 692.41 200.36 C 680.44 209.49 677.53 228.14 685.12 240.86 C 693.49 252.94 709.71 253.48 722.99 253.90 C 727.73 254.24 734.86 252.62 737.31 257.94 C 737.31 261.21 734.32 263.35 731.62 264.51 C 723.22 268.00 714.00 268.82 705.00 269.04 C 689.84 268.63 673.66 266.29 661.45 256.55 C 647.05 245.37 644.86 221.70 657.23 208.23 C 666.99 197.21 681.43 192.32 694.75 187.11 C 687.52 186.26 680.21 186.00 672.93 186.01 C 666.06 185.97 661.06 191.31 655.86 195.04 C 650.49 192.81 652.17 185.76 653.28 181.33 C 657.04 170.87 663.47 158.24 675.91 157.04 C 692.47 157.10 708.38 163.54 725.00 162.99 C 730.19 163.20 735.52 162.31 740.60 163.79 C 738.39 172.71 734.72 181.18 732.02 189.96 C 729.28 190.00 726.53 190.02 723.80 190.20 C 729.06 200.18 741.93 196.15 751.00 196.99 C 753.97 196.61 761.03 198.54 760.41 193.62 C 756.98 187.36 750.89 183.17 746.31 177.85 C 750.94 169.45 757.17 161.92 762.49 153.91 Z" />
<path fill="#00138e" opacity="1.00" d=" M 919.45 181.63 C 923.30 177.79 926.66 173.45 930.82 169.92 C 937.49 185.29 936.49 203.18 930.48 218.59 C 928.01 224.83 923.22 231.32 915.99 231.94 C 909.03 232.53 903.22 227.56 899.82 221.94 C 897.62 225.83 895.10 230.20 890.48 231.47 C 883.13 233.59 875.15 229.12 872.41 222.10 C 870.06 226.03 867.16 230.29 862.43 231.43 C 857.50 232.55 852.40 231.81 847.40 232.03 C 846.18 243.61 844.07 255.60 837.40 265.42 C 835.38 268.30 833.14 272.10 829.11 271.96 C 816.73 271.98 804.32 272.19 791.95 271.86 C 787.07 272.17 785.26 264.60 789.77 262.83 C 801.73 256.82 813.32 250.03 824.21 242.24 C 827.59 239.59 831.33 236.94 833.05 232.84 C 825.92 232.21 818.40 233.08 811.61 230.40 C 804.92 227.57 802.33 219.75 802.48 213.00 C 802.45 200.63 804.80 187.45 812.33 177.34 C 817.40 170.31 827.96 169.12 834.82 174.19 C 842.01 179.51 844.57 188.64 846.51 196.94 C 851.89 195.99 857.21 199.06 862.45 197.42 C 869.48 194.57 865.83 183.50 873.09 181.00 C 878.62 181.34 878.19 188.28 879.73 192.18 C 880.78 198.41 890.76 200.44 894.00 195.01 C 895.61 191.26 895.45 186.96 897.22 183.26 C 898.78 180.09 904.21 180.35 905.08 183.94 C 907.08 188.43 906.15 195.22 911.58 197.39 C 915.45 198.50 921.77 198.89 923.19 194.04 C 923.49 189.61 921.26 185.52 919.45 181.63 M 815.15 203.71 C 820.45 205.89 826.34 205.28 831.88 204.52 C 831.83 196.02 813.65 193.20 815.15 203.71 Z" />
<path fill="#00138e" opacity="1.00" d=" M 1101.34 181.97 C 1105.14 177.95 1108.62 173.60 1112.79 169.94 C 1119.48 185.13 1118.31 202.69 1113.06 218.11 C 1110.98 223.89 1107.47 230.45 1100.91 231.77 C 1094.02 233.01 1087.62 228.56 1084.10 222.94 C 1082.38 226.37 1080.26 230.06 1076.42 231.40 C 1071.94 233.15 1067.41 230.47 1063.44 228.61 C 1063.22 239.20 1061.05 250.56 1053.55 258.54 C 1044.32 268.52 1029.95 270.77 1017.00 271.04 C 1004.14 270.77 989.71 268.40 980.95 258.02 C 972.92 248.34 973.22 234.62 975.92 222.99 C 977.53 216.48 979.11 209.66 983.16 204.16 C 984.70 201.79 988.77 200.84 990.54 203.45 C 994.44 211.60 986.68 220.73 991.26 228.74 C 995.13 235.17 1003.28 236.65 1010.14 237.62 C 1021.39 238.47 1033.26 238.47 1043.75 233.77 C 1047.42 232.23 1050.90 228.13 1049.11 224.00 C 1045.82 217.38 1039.70 212.81 1034.25 208.06 C 1038.53 199.77 1042.62 191.38 1047.04 183.16 C 1052.93 188.18 1057.39 195.24 1064.84 198.16 C 1068.68 199.58 1074.39 199.82 1076.38 195.43 C 1078.18 190.84 1077.10 183.56 1083.06 181.94 C 1088.23 182.59 1088.18 188.95 1089.26 192.85 C 1090.11 199.54 1099.67 200.88 1104.09 197.08 C 1106.95 192.20 1102.73 186.75 1101.34 181.97 Z" />
<path fill="#00138e" opacity="1.00" d=" M 1637.03 181.25 C 1641.05 177.92 1643.87 172.03 1648.59 170.29 C 1654.73 184.93 1653.85 201.88 1648.69 216.67 C 1646.31 223.13 1642.27 230.29 1634.90 231.70 C 1627.44 233.32 1620.95 227.85 1617.18 221.97 C 1615.12 226.01 1612.34 230.36 1607.66 231.55 C 1600.42 233.44 1592.49 229.07 1589.98 222.05 C 1585.65 232.76 1572.20 234.29 1562.71 230.25 C 1564.01 243.35 1559.29 256.26 1551.90 266.90 C 1550.04 269.48 1547.62 272.40 1544.08 272.01 C 1531.74 271.88 1519.37 272.31 1507.06 271.79 C 1502.96 271.69 1500.81 265.66 1504.40 263.36 C 1518.32 255.77 1532.04 247.48 1544.01 237.00 C 1546.72 234.28 1551.24 230.51 1548.89 226.26 C 1544.55 219.21 1538.34 213.56 1532.42 207.87 C 1536.96 198.92 1540.75 189.55 1545.84 180.89 C 1552.30 186.80 1557.87 195.07 1567.07 196.72 C 1571.48 196.84 1576.05 199.19 1580.37 197.24 C 1586.95 194.04 1583.40 182.93 1591.00 180.95 C 1596.02 181.87 1595.69 188.07 1597.14 191.86 C 1597.95 197.99 1606.92 200.19 1610.92 195.94 C 1613.36 192.01 1612.67 186.96 1614.91 182.93 C 1616.58 180.51 1620.45 180.34 1622.11 182.90 C 1623.96 186.51 1623.89 190.76 1625.59 194.43 C 1628.50 198.95 1636.21 199.44 1639.91 195.74 C 1642.14 190.87 1638.70 185.80 1637.03 181.25 Z" />
<path fill="#00138e" opacity="1.00" d=" M 1154.40 207.87 C 1159.01 198.98 1162.64 189.54 1167.87 181.00 C 1176.42 188.15 1183.30 197.80 1184.92 209.05 C 1187.89 227.77 1186.64 248.54 1175.69 264.64 C 1173.22 267.78 1170.70 272.31 1166.08 272.00 C 1154.03 271.96 1141.98 272.15 1129.94 271.91 C 1125.83 272.24 1122.70 266.83 1125.84 263.80 C 1139.83 255.91 1153.89 247.68 1166.01 237.00 C 1168.70 234.26 1173.25 230.52 1170.89 226.27 C 1166.54 219.21 1160.35 213.54 1154.40 207.87 Z" />
<path fill="#00138e" opacity="1.00" d=" M 309.60 189.46 C 376.44 191.38 444.43 198.75 506.87 224.08 C 521.08 229.07 534.06 237.67 544.42 248.59 C 550.88 255.37 555.47 265.22 552.48 274.63 C 549.00 285.23 540.53 293.43 531.46 299.52 C 516.73 309.89 500.42 318.03 483.10 323.05 C 430.80 339.63 375.67 345.51 321.00 346.59 C 243.63 348.78 163.94 342.10 92.35 310.64 C 80.07 305.59 68.97 297.72 59.86 288.09 C 52.61 280.33 48.18 268.35 53.25 258.27 C 60.46 243.85 75.22 235.51 88.73 227.84 C 126.48 209.28 168.19 201.00 209.56 195.23 C 212.89 201.12 216.30 206.97 219.84 212.74 C 196.52 217.75 172.95 222.91 151.33 233.32 C 139.51 239.04 127.55 245.89 119.79 256.80 C 115.47 262.90 114.41 271.36 117.90 278.09 C 121.88 285.81 129.04 291.14 136.03 295.96 C 155.57 308.60 178.35 314.52 200.62 320.34 C 252.05 331.28 305.10 331.54 357.33 327.43 C 384.36 324.52 411.21 319.41 437.15 311.20 C 451.10 305.59 465.13 299.42 476.89 289.88 C 483.29 284.63 489.20 277.62 489.67 268.99 C 489.55 262.11 485.80 255.75 480.99 251.04 C 465.04 236.70 444.33 229.54 424.36 222.75 C 390.35 213.47 355.19 209.70 320.20 206.24 C 316.64 200.66 313.27 194.96 309.60 189.46 Z" />
<path fill="#00138e" opacity="1.00" d=" M 684.29 224.26 C 687.12 221.41 689.94 218.54 692.88 215.81 C 695.68 218.42 698.47 221.04 701.30 223.63 C 703.99 221.08 706.58 218.41 709.12 215.70 C 712.42 218.20 715.15 221.34 718.19 224.14 C 715.83 227.56 712.50 230.13 709.70 233.17 C 706.77 230.66 704.12 227.86 701.28 225.26 C 698.63 227.96 695.96 230.63 693.16 233.16 C 690.17 230.22 687.15 227.32 684.29 224.26 Z" />
<path fill="#00138e" opacity="1.00" d=" M 692.56 239.18 C 695.34 236.20 698.14 233.23 701.03 230.35 C 704.20 233.10 707.14 236.11 710.15 239.05 C 707.32 242.07 704.41 245.02 701.38 247.83 C 698.39 244.99 695.38 242.18 692.56 239.18 Z" />
<path fill="#00138e" opacity="1.00" d=" M 1236.48 251.30 C 1239.89 247.75 1243.23 244.13 1246.88 240.81 C 1250.25 243.93 1253.44 247.24 1256.92 250.24 C 1260.04 247.13 1263.07 243.92 1266.20 240.82 C 1270.08 244.02 1273.52 247.70 1277.19 251.13 C 1274.03 254.96 1270.31 258.26 1266.80 261.74 C 1263.40 258.70 1260.25 255.41 1256.97 252.26 C 1253.60 255.35 1250.44 258.65 1247.11 261.77 C 1243.46 258.39 1239.84 254.97 1236.48 251.30 Z" />
<path fill="#00138e" opacity="1.00" d=" M 742.23 255.13 C 745.63 251.51 749.10 247.95 752.90 244.73 C 756.36 247.26 758.97 251.45 762.90 252.99 C 766.19 250.55 768.62 247.15 771.93 244.73 C 775.70 248.12 779.48 251.49 783.07 255.08 C 779.51 258.71 775.88 262.28 772.04 265.62 C 768.85 262.81 765.82 259.83 762.79 256.86 C 759.24 259.43 756.45 262.86 753.06 265.61 C 749.33 262.25 745.62 258.84 742.23 255.13 Z" />
<path fill="#00138e" opacity="1.00" d=" M 1246.42 269.00 C 1249.79 265.38 1253.04 261.61 1256.76 258.32 C 1260.31 261.86 1263.85 265.41 1267.38 268.99 C 1263.91 272.50 1260.60 276.19 1257.00 279.58 C 1253.32 276.21 1249.92 272.55 1246.42 269.00 Z" />
<path fill="#00138e" opacity="1.00" d=" M 898.83 346.81 C 909.20 339.77 923.03 339.76 934.68 343.29 C 944.34 346.25 950.88 355.89 950.88 365.89 C 945.54 366.19 940.21 366.48 934.89 366.96 C 933.90 353.94 916.97 351.95 908.06 358.07 C 904.05 360.98 905.37 367.43 909.75 369.23 C 920.85 374.57 934.18 374.28 944.45 381.55 C 954.46 388.70 955.93 404.14 948.81 413.81 C 944.78 419.72 937.88 422.94 930.99 424.05 C 921.08 425.79 910.38 425.35 901.25 420.84 C 892.79 416.54 888.18 407.27 887.15 398.15 C 892.36 397.38 897.60 396.79 902.83 396.17 C 903.98 410.78 923.02 415.31 933.46 407.46 C 938.05 404.13 938.41 395.69 932.68 393.34 C 920.99 387.99 906.44 388.61 896.64 379.37 C 887.37 370.72 888.44 354.11 898.83 346.81 Z" />
<path fill="#00138e" opacity="1.00" d=" M 1007.41 346.40 C 1018.00 339.70 1031.81 339.76 1043.43 343.56 C 1052.72 346.75 1058.87 356.18 1058.87 365.89 C 1053.53 366.20 1048.19 366.48 1042.87 366.98 C 1041.92 353.73 1024.25 351.76 1015.55 358.54 C 1012.04 361.63 1013.69 367.48 1017.73 369.22 C 1028.84 374.55 1042.18 374.28 1052.45 381.55 C 1062.26 388.54 1063.87 403.55 1057.21 413.22 C 1053.43 419.17 1046.74 422.61 1039.96 423.87 C 1029.76 425.83 1018.68 425.49 1009.24 420.84 C 1000.78 416.56 996.21 407.28 995.14 398.19 C 1000.34 397.35 1005.57 396.80 1010.80 396.17 C 1012.02 402.51 1015.86 408.96 1022.63 410.38 C 1029.25 411.58 1037.46 411.76 1042.47 406.47 C 1046.17 402.88 1045.88 395.41 1040.68 393.34 C 1028.82 387.88 1013.84 388.64 1004.16 378.86 C 995.14 369.94 996.77 353.33 1007.41 346.40 Z" />
<path fill="#00138e" opacity="1.00" d=" M 1287.04 361.02 C 1295.79 341.24 1323.60 335.10 1340.91 347.10 C 1347.23 351.49 1351.03 358.53 1352.98 365.83 C 1347.73 366.99 1342.42 367.85 1337.14 368.82 C 1335.00 357.06 1320.89 351.51 1310.70 356.85 C 1303.36 360.17 1300.05 368.42 1299.52 376.01 C 1299.15 384.62 1298.79 393.94 1303.35 401.62 C 1308.71 410.62 1322.28 412.91 1330.39 406.38 C 1334.45 403.14 1336.28 398.04 1337.64 393.20 C 1342.80 394.81 1347.97 396.39 1353.13 398.03 C 1351.05 406.33 1346.48 414.46 1338.99 418.97 C 1323.05 428.36 1299.78 424.49 1289.44 408.57 C 1280.57 394.59 1280.66 375.97 1287.04 361.02 Z" />
<path fill="#00138e" opacity="1.00" d=" M 1454.48 357.45 C 1464.92 340.25 1490.52 335.91 1506.68 347.31 C 1513.00 351.60 1516.41 358.76 1518.59 365.85 C 1513.31 366.92 1508.00 367.85 1502.71 368.83 C 1500.15 354.04 1479.30 350.22 1470.37 361.39 C 1463.07 371.00 1463.95 384.44 1466.31 395.65 C 1468.46 406.14 1480.24 412.65 1490.34 409.33 C 1497.53 407.24 1501.60 400.14 1503.08 393.23 C 1508.35 394.76 1513.59 396.40 1518.79 398.18 C 1516.39 405.99 1512.42 413.77 1505.41 418.37 C 1488.33 429.43 1462.05 423.89 1452.89 405.08 C 1445.93 390.31 1446.41 371.69 1454.48 357.45 Z" />
<path fill="#00138e" opacity="1.00" d=" M 1563.36 341.41 C 1576.29 339.72 1590.72 343.31 1599.40 353.57 C 1607.15 362.37 1609.39 374.60 1608.77 386.00 C 1608.78 399.01 1602.86 412.57 1591.35 419.34 C 1575.68 428.36 1553.31 426.90 1540.48 413.53 C 1530.39 403.05 1529.11 387.42 1530.78 373.67 C 1532.59 357.11 1546.38 342.39 1563.36 341.41 M 1564.31 355.39 C 1556.08 356.93 1549.61 363.92 1547.94 372.02 C 1545.74 382.02 1545.96 393.43 1551.76 402.23 C 1559.41 413.52 1578.00 414.14 1586.43 403.44 C 1593.58 393.62 1593.57 380.07 1590.16 368.85 C 1586.86 358.22 1574.74 352.94 1564.31 355.39 Z" />
<path fill="#00138e" opacity="1.00" d=" M 658.40 342.02 C 673.79 342.39 689.40 340.84 704.64 343.48 C 724.89 349.18 725.99 381.93 707.09 390.09 C 696.78 394.16 685.32 392.64 674.48 393.06 C 674.49 403.37 674.51 413.69 674.48 424.01 C 669.11 424.01 663.75 424.04 658.39 423.98 C 658.41 396.66 658.41 369.34 658.40 342.02 M 674.48 356.05 C 674.50 363.68 674.51 371.31 674.47 378.94 C 682.09 378.60 690.08 380.09 697.42 377.52 C 705.84 374.32 705.94 360.75 697.60 357.40 C 690.21 354.82 682.14 356.47 674.48 356.05 Z" />
<path fill="#00138e" opacity="1.00" d=" M 750.18 342.11 C 755.66 341.91 761.16 341.90 766.66 342.11 C 777.49 369.46 788.60 396.70 799.59 423.99 C 793.72 424.03 787.85 424.04 781.99 423.98 C 779.66 417.66 777.16 411.42 774.80 405.12 C 763.86 404.96 752.91 404.94 741.98 405.13 C 739.85 411.48 737.39 417.71 735.12 424.01 C 729.44 424.00 723.75 424.07 718.08 423.94 C 728.71 396.64 739.59 369.43 750.18 342.11 M 747.28 390.93 C 754.62 390.98 761.96 391.04 769.31 390.90 C 765.48 381.23 762.15 371.36 758.10 361.78 C 754.44 371.48 750.92 381.23 747.28 390.93 Z" />
<path fill="#00138e" opacity="1.00" d=" M 808.78 342.00 C 821.19 341.99 833.61 341.94 846.02 342.02 C 852.51 342.49 859.45 342.43 865.28 345.72 C 877.57 353.32 878.78 373.49 867.48 382.48 C 863.60 385.65 858.63 386.91 853.84 387.93 C 867.43 395.96 873.11 411.61 881.82 423.98 C 875.85 423.99 869.88 424.10 863.92 423.98 C 862.46 424.21 861.76 422.84 861.08 421.88 C 854.92 412.75 849.17 403.30 842.34 394.65 C 838.19 389.29 830.86 389.79 824.82 390.13 C 824.82 401.42 824.82 412.70 824.83 423.99 C 819.48 424.03 814.13 424.02 808.78 424.00 C 808.76 396.66 808.77 369.33 808.78 342.00 M 824.83 356.13 C 824.82 362.71 824.81 369.29 824.82 375.87 C 833.90 375.75 843.15 376.78 852.11 375.12 C 860.99 373.03 860.67 358.16 851.64 356.49 C 842.77 355.49 833.75 356.16 824.83 356.13 Z" />
<path fill="#00138e" opacity="1.00" d=" M 1068.12 342.03 C 1073.59 341.96 1079.06 341.93 1084.54 342.05 C 1088.74 360.83 1092.57 379.69 1097.00 398.41 C 1102.40 379.75 1107.12 360.89 1112.13 342.12 C 1118.55 341.89 1124.98 341.93 1131.41 342.08 C 1136.02 360.86 1140.68 379.64 1145.49 398.37 C 1146.26 397.37 1146.82 396.23 1147.02 394.97 C 1150.74 377.31 1154.71 359.70 1158.48 342.05 C 1163.89 341.94 1169.29 341.95 1174.70 342.04 C 1168.10 369.33 1161.51 396.63 1155.04 423.96 C 1149.29 424.06 1143.55 424.00 1137.81 424.01 C 1132.17 403.66 1127.54 382.94 1121.19 362.85 C 1115.80 383.22 1110.31 403.57 1105.05 423.98 C 1099.19 424.01 1093.34 424.10 1087.49 423.92 C 1081.11 396.61 1074.48 369.35 1068.12 342.03 Z" />
<path fill="#00138e" opacity="1.00" d=" M 1183.52 342.00 C 1188.88 341.99 1194.25 341.95 1199.62 342.02 C 1199.58 369.34 1199.60 396.66 1199.61 423.98 C 1194.24 424.04 1188.88 424.02 1183.52 424.00 C 1183.50 396.67 1183.49 369.33 1183.52 342.00 Z" />
<path fill="#00138e" opacity="1.00" d=" M 1211.18 342.01 C 1232.52 341.96 1253.87 341.99 1275.21 342.00 C 1275.23 346.66 1275.23 351.33 1275.21 356.00 C 1267.21 356.05 1259.21 355.98 1251.22 356.04 C 1251.23 378.69 1251.23 401.35 1251.21 424.00 C 1245.86 424.02 1240.52 424.03 1235.17 423.99 C 1235.19 401.37 1235.16 378.75 1235.19 356.13 C 1227.19 355.87 1219.18 356.11 1211.18 355.99 C 1211.17 351.33 1211.17 346.67 1211.18 342.01 Z" />
<path fill="#00138e" opacity="1.00" d=" M 1368.38 342.02 C 1373.74 341.94 1379.11 341.98 1384.48 342.00 C 1384.50 352.64 1384.50 363.29 1384.48 373.94 C 1395.38 373.97 1406.28 374.10 1417.19 373.87 C 1417.16 363.25 1417.17 352.63 1417.18 342.01 C 1422.51 341.96 1427.86 341.98 1433.21 342.00 C 1433.26 369.33 1433.23 396.67 1433.22 424.00 C 1427.87 424.02 1422.52 424.03 1417.17 423.99 C 1417.18 412.04 1417.16 400.08 1417.19 388.13 C 1406.28 387.89 1395.37 388.04 1384.47 388.06 C 1384.51 400.04 1384.49 412.02 1384.48 424.00 C 1379.11 424.02 1373.75 424.04 1368.39 423.98 C 1368.41 396.66 1368.42 369.34 1368.38 342.02 Z" />
<path fill="#00138e" opacity="1.00" d=" M 1622.39 408.02 C 1627.45 407.96 1632.53 407.96 1637.60 408.02 C 1637.58 413.34 1637.58 418.66 1637.60 423.98 C 1632.53 424.04 1627.46 424.03 1622.39 423.98 C 1622.40 418.66 1622.40 413.34 1622.39 408.02 Z" />
</g>
</svg>
