<?xml version="1.0" encoding="UTF-8" ?>
<!DOCTYPE svg PUBLIC "-//W3C//DTD SVG 1.1//EN" "http://www.w3.org/Graphics/SVG/1.1/DTD/svg11.dtd">
<svg width="1200pt" height="1009pt" viewBox="0 0 1200 1009" version="1.1" xmlns="http://www.w3.org/2000/svg">
<g id="#ffffffff">
</g>
<g id="#807f84ff">
<path fill="#807f84" opacity="1.00" d=" M 245.62 132.61 C 248.63 126.50 255.41 123.06 262.06 122.99 C 343.06 122.96 424.06 123.00 505.07 122.97 C 508.46 122.75 510.87 125.71 512.91 128.01 C 519.25 136.59 520.31 147.68 520.89 158.00 C 521.15 181.26 516.27 204.21 510.50 226.64 C 509.80 229.73 508.30 232.75 508.61 235.99 C 509.09 244.66 507.98 253.31 508.01 261.98 C 506.50 294.36 504.48 326.71 502.60 359.07 C 502.46 360.31 502.33 361.59 501.73 362.70 C 469.77 418.24 437.39 473.54 405.57 529.15 L 406.89 529.36 C 406.46 529.36 405.61 529.37 405.19 529.38 C 380.04 573.34 354.41 617.03 329.19 660.95 C 324.26 668.89 317.64 676.12 309.06 680.11 C 303.42 682.74 297.08 683.02 290.96 683.16 C 273.34 684.52 255.66 683.90 238.01 684.42 C 200.67 684.69 163.34 684.34 126.01 683.96 C 115.08 682.18 104.03 676.45 98.44 666.53 C 94.17 659.15 94.07 650.19 95.36 641.98 C 98.29 625.90 107.59 612.14 114.81 597.77 C 156.36 518.92 197.53 439.88 238.83 360.90 C 247.06 344.86 255.61 328.98 263.76 312.91 C 265.39 292.32 265.03 271.62 264.95 250.97 C 263.77 234.21 263.69 216.77 257.13 201.03 C 250.60 188.28 245.78 174.59 243.34 160.47 C 242.04 151.23 241.30 141.20 245.62 132.61 Z" />
<path fill="#807f84" opacity="1.00" d=" M 96.00 722.99 C 105.69 722.97 115.38 723.04 125.07 722.94 C 124.92 756.28 125.08 789.63 124.98 822.97 C 124.69 829.43 129.70 835.60 135.97 836.98 C 139.29 837.56 142.68 837.38 146.04 837.42 C 162.97 837.35 179.90 837.52 196.82 837.34 C 204.32 837.33 210.74 830.51 210.76 823.12 C 210.76 808.72 210.88 794.33 210.69 779.94 C 220.25 780.03 229.81 780.03 239.36 779.95 C 239.31 794.63 239.36 809.31 239.34 823.98 C 239.44 834.61 234.90 844.96 227.74 852.71 C 220.26 860.50 209.83 865.47 199.02 866.02 C 178.35 866.00 157.69 865.99 137.02 866.02 C 121.29 865.51 106.45 855.33 100.06 840.98 C 96.87 834.14 95.93 826.50 95.98 819.03 C 96.02 787.02 95.99 755.00 96.00 722.99 Z" />
<path fill="#807f84" opacity="1.00" d=" M 926.45 780.09 C 954.93 761.04 983.40 741.92 1012.02 723.10 C 1021.51 722.88 1031.03 722.95 1040.53 723.07 C 1023.25 735.04 1005.56 746.45 988.12 758.21 C 977.03 765.43 966.23 773.13 954.98 780.06 C 945.47 780.04 935.96 780.03 926.45 780.09 Z" />
<path fill="#807f84" opacity="1.00" d=" M 969.41 780.14 C 997.79 760.94 1026.38 741.98 1054.94 723.06 C 1064.50 722.93 1074.07 722.96 1083.64 723.03 C 1070.05 732.45 1056.06 741.33 1042.42 750.67 C 1042.25 750.92 1041.90 751.42 1041.72 751.67 C 1056.14 751.23 1070.59 751.45 1085.02 751.54 C 1103.10 751.62 1120.01 764.65 1124.99 781.97 C 1127.79 790.73 1126.62 799.99 1126.86 809.02 C 1126.65 818.01 1127.75 827.24 1124.91 835.94 C 1119.52 854.11 1100.95 867.33 1081.97 866.01 C 1043.65 866.01 1005.33 865.98 967.01 866.03 C 962.92 865.98 958.97 864.83 955.05 863.83 C 955.02 878.91 954.90 894.00 955.10 909.08 C 945.48 908.84 935.86 909.19 926.24 908.89 C 926.45 880.28 926.38 851.67 926.28 823.06 C 935.81 822.87 945.35 823.11 954.88 822.94 C 955.01 830.45 961.44 837.39 969.09 837.37 C 1006.06 837.47 1043.04 837.39 1080.01 837.41 C 1083.78 837.36 1087.94 837.53 1091.20 835.27 C 1095.43 832.77 1098.24 827.94 1098.05 823.00 C 1098.02 812.98 1098.15 802.96 1097.97 792.94 C 1097.38 785.17 1089.63 779.40 1082.04 780.03 C 1044.50 780.14 1006.95 779.92 969.41 780.14 Z" />
<path fill="#807f84" opacity="1.00" d=" M 181.95 751.49 C 191.63 751.44 201.31 751.35 210.99 751.55 C 210.78 761.00 210.90 770.46 210.92 779.92 C 205.63 780.16 200.32 780.05 195.03 780.03 C 187.84 779.86 182.00 773.01 181.99 766.00 C 181.93 761.16 182.06 756.32 181.95 751.49 Z" />
<path fill="#807f84" opacity="1.00" d=" M 325.17 780.09 C 334.76 779.90 344.37 780.03 353.97 780.02 C 354.06 794.01 353.95 808.00 354.02 821.99 C 354.20 833.33 349.94 844.80 341.94 852.92 C 334.48 860.81 323.86 865.65 313.01 866.02 C 288.40 865.95 263.78 866.08 239.17 865.95 C 239.30 856.48 239.34 847.00 239.12 837.53 C 263.23 837.20 287.35 837.59 311.46 837.34 C 318.91 837.26 325.48 830.48 325.18 823.02 C 325.22 808.71 325.23 794.39 325.17 780.09 Z" />
<path fill="#807f84" opacity="1.00" d=" M 439.90 779.97 C 470.26 780.04 500.62 779.98 530.98 780.00 C 536.26 780.04 541.60 779.74 546.84 780.68 C 559.22 782.55 570.56 790.26 576.88 801.06 C 583.10 811.42 584.75 824.45 581.00 835.98 C 575.95 852.85 559.56 865.59 541.91 866.02 C 520.91 865.98 499.91 866.01 478.92 866.01 C 469.84 865.14 460.85 861.47 454.10 855.26 C 446.00 862.51 434.94 866.66 424.04 866.02 C 400.65 866.00 377.25 865.98 353.86 866.03 C 353.95 856.49 353.98 846.94 353.83 837.40 C 377.84 837.37 401.86 837.51 425.87 837.34 C 433.40 837.32 439.72 830.47 439.85 823.08 C 439.97 808.71 439.84 794.34 439.90 779.97 M 468.23 808.95 C 468.89 816.86 466.26 826.23 472.21 832.71 C 476.01 837.47 482.50 837.56 488.05 837.43 C 503.72 837.39 519.39 837.43 535.07 837.41 C 538.05 837.38 541.08 837.48 544.01 836.79 C 550.25 835.01 554.81 828.55 554.11 822.05 C 553.81 814.94 547.23 808.59 540.06 808.93 C 516.12 808.96 492.17 808.92 468.23 808.95 Z" />
<path fill="#807f84" opacity="1.00" d=" M 611.46 779.92 C 645.32 780.14 679.18 779.88 713.04 780.05 C 726.52 780.49 739.69 787.50 747.17 798.80 C 758.03 814.05 756.99 836.41 744.78 850.61 C 736.64 860.51 723.83 866.51 710.98 866.02 C 695.31 865.97 679.64 866.02 663.97 866.00 C 656.61 865.90 649.07 866.70 641.97 864.27 C 624.86 859.37 611.92 842.83 611.54 824.98 C 611.21 809.97 611.40 794.93 611.46 779.92 M 640.01 808.92 C 640.56 815.90 638.54 823.52 641.98 829.98 C 644.59 834.56 649.64 837.58 654.96 837.37 C 673.67 837.46 692.38 837.41 711.09 837.39 C 717.16 837.55 723.15 833.69 725.15 827.89 C 728.75 819.32 721.25 808.59 711.99 808.94 C 688.00 808.92 664.01 808.97 640.01 808.92 Z" />
<path fill="#807f84" opacity="1.00" d=" M 795.32 783.41 C 800.89 781.07 806.96 780.04 813.00 780.00 C 846.00 780.00 879.00 780.01 912.00 779.99 C 912.00 823.00 911.99 866.00 912.00 909.01 C 902.39 908.96 892.79 909.05 883.18 908.98 C 883.47 893.95 883.24 878.91 883.30 863.88 C 879.27 864.96 875.18 866.06 870.98 866.03 C 850.65 865.99 830.33 866.00 810.00 866.02 C 796.27 865.65 783.09 857.95 775.73 846.39 C 768.93 836.07 767.17 822.73 770.63 810.91 C 774.14 798.64 783.53 788.26 795.32 783.41 M 804.01 811.29 C 796.83 815.67 795.54 826.55 801.26 832.63 C 804.19 835.89 808.57 837.53 812.92 837.41 C 831.65 837.36 850.37 837.52 869.10 837.33 C 876.02 837.51 882.61 831.89 883.21 824.94 C 883.51 819.59 883.17 814.24 883.33 808.89 C 861.56 808.99 839.79 808.92 818.01 808.94 C 813.29 809.01 808.02 808.16 804.01 811.29 Z" />
<path fill="#807f84" opacity="1.00" d=" M 239.20 880.19 C 248.81 880.18 258.42 880.38 268.02 880.09 C 267.97 889.74 268.01 899.40 268.01 909.06 C 262.98 908.94 257.95 909.07 252.93 908.99 C 246.24 908.81 240.25 903.36 239.48 896.71 C 238.96 891.22 239.45 885.69 239.20 880.19 Z" />
<path fill="#807f84" opacity="1.00" d=" M 282.18 880.19 C 291.79 880.21 301.40 880.33 311.01 880.12 C 311.00 889.77 311.00 899.42 311.01 909.07 C 305.97 908.95 300.94 909.07 295.91 908.99 C 289.23 908.88 283.20 903.39 282.42 896.76 C 281.93 891.25 282.35 885.71 282.18 880.19 Z" />
<path fill="#807f84" opacity="1.00" d=" M 325.17 880.18 C 334.77 880.24 344.38 880.28 353.99 880.17 C 354.07 889.78 353.89 899.39 354.09 909.00 C 346.56 908.30 338.15 910.92 331.39 906.55 C 327.19 903.90 325.09 898.80 325.19 893.97 C 325.17 889.37 325.24 884.77 325.17 880.18 Z" />
</g>
<g id="#c51230ff">
<path fill="#c51230" opacity="1.00" d=" M 589.61 316.81 C 604.47 314.60 620.27 319.51 630.99 330.08 C 643.20 341.59 648.80 359.72 644.97 376.08 C 643.73 382.14 641.22 387.87 637.90 393.06 C 590.16 474.60 542.46 556.16 494.71 637.70 C 490.98 644.35 486.71 650.70 483.48 657.63 C 476.98 670.62 464.44 680.31 450.26 683.41 C 437.45 686.10 423.47 683.94 412.55 676.54 C 401.25 669.33 393.27 657.20 391.00 644.00 C 389.10 633.43 390.73 622.22 395.68 612.68 C 448.46 522.12 501.25 431.55 554.02 340.97 C 561.34 328.02 574.88 318.86 589.61 316.81 Z" />
<path fill="#c51230" opacity="1.00" d=" M 744.48 316.67 C 755.94 315.28 767.93 317.94 777.54 324.40 C 790.53 332.70 799.01 347.58 799.64 362.97 C 800.20 372.66 797.84 382.51 792.85 390.85 C 741.81 478.12 690.70 565.33 639.67 652.60 C 635.12 663.18 627.58 672.68 617.36 678.24 C 607.05 684.25 594.54 685.78 582.92 683.53 C 567.58 680.35 554.13 669.39 547.97 654.99 C 541.14 639.72 543.00 621.14 552.42 607.36 C 603.89 519.18 655.32 430.98 706.71 342.75 C 714.08 328.60 728.58 318.40 744.48 316.67 Z" />
<path fill="#c51230" opacity="1.00" d=" M 896.51 316.79 C 916.68 313.58 938.01 324.43 947.24 342.65 C 950.69 350.80 956.15 357.84 960.76 365.35 C 1015.76 451.01 1070.92 536.58 1125.82 622.30 C 1128.75 632.86 1128.78 644.33 1125.91 654.94 C 1123.38 664.14 1116.83 672.28 1107.98 676.04 C 1096.99 681.00 1084.66 679.57 1072.96 679.80 C 1045.63 679.58 1018.31 680.21 990.98 680.08 C 950.34 680.07 909.70 680.09 869.06 680.18 C 858.82 680.10 847.57 676.00 842.19 666.76 C 838.32 660.24 838.17 652.34 838.99 645.03 C 841.22 629.82 848.27 615.94 855.45 602.56 C 878.83 559.02 903.79 516.36 928.71 473.69 C 931.07 469.86 932.66 465.47 932.75 460.94 C 932.52 456.27 930.24 451.32 925.84 449.25 C 921.52 446.84 916.12 448.30 912.46 451.27 C 907.33 455.51 904.55 461.73 900.99 467.20 C 864.95 527.66 829.86 588.68 794.55 649.57 C 791.70 654.13 789.94 659.30 786.72 663.62 C 777.67 676.63 761.96 684.96 746.04 684.45 C 733.29 684.67 720.64 679.33 711.63 670.36 C 700.48 659.41 695.00 642.94 697.64 627.52 C 698.68 619.86 702.07 612.77 706.25 606.35 C 757.55 518.32 808.90 430.31 860.15 342.24 C 867.32 328.62 881.27 318.91 896.51 316.79 Z" />
</g>
</svg>
