<?xml version="1.0" encoding="UTF-8" ?>
<!DOCTYPE svg PUBLIC "-//W3C//DTD SVG 1.1//EN" "http://www.w3.org/Graphics/SVG/1.1/DTD/svg11.dtd">
<svg width="500pt" height="352pt" viewBox="0 0 500 352" version="1.1" xmlns="http://www.w3.org/2000/svg">
<g id="#fdfdfcff">
</g>
<g id="#01379cff">
<path fill="#01379c" opacity="1.00" d=" M 155.90 33.69 C 178.53 32.21 201.26 30.70 223.93 32.43 C 248.17 32.86 272.27 35.79 296.17 39.72 C 310.95 42.26 325.84 44.73 340.08 49.53 C 321.80 47.70 303.35 47.00 285.00 48.08 C 258.09 48.65 231.20 51.65 204.91 57.37 C 210.86 58.67 216.98 57.89 223.00 58.60 C 238.95 59.11 254.80 61.20 270.62 63.20 C 304.02 67.89 337.13 75.26 368.97 86.49 C 388.95 93.25 408.32 101.85 426.68 112.25 C 446.02 123.81 464.92 137.60 477.30 156.80 C 485.32 169.07 488.87 184.94 483.88 199.06 C 478.40 215.25 464.64 226.89 450.37 235.38 C 427.09 248.75 400.85 256.03 374.56 260.70 C 347.94 265.21 320.92 266.84 293.94 266.88 C 252.29 266.43 210.66 261.57 170.07 252.16 C 166.69 251.18 163.11 250.89 159.86 249.48 C 166.25 249.44 172.64 249.66 179.00 250.27 C 215.90 251.61 253.03 249.33 289.28 242.15 C 291.61 241.74 293.91 241.21 296.15 240.43 C 262.21 240.00 228.37 236.02 195.10 229.39 C 168.82 223.94 142.84 216.85 117.77 207.24 C 95.68 198.52 74.12 188.09 54.76 174.23 C 42.80 165.77 31.77 155.70 23.61 143.44 C 15.34 131.25 10.93 115.52 15.27 101.06 C 19.98 86.15 31.74 74.77 44.40 66.23 C 61.72 55.22 81.19 48.11 100.96 42.91 C 119.03 38.56 137.43 35.67 155.90 33.69 M 209.12 58.68 C 208.57 60.00 207.93 61.30 206.75 62.18 C 201.24 61.21 195.46 59.40 189.93 61.23 C 176.84 64.88 163.91 69.45 151.93 75.92 C 138.66 82.89 126.16 92.40 118.27 105.35 C 111.10 116.89 111.06 131.92 116.80 144.05 C 124.05 159.98 137.59 171.79 151.21 182.24 C 149.62 185.34 147.94 188.42 146.88 191.76 C 151.50 196.09 154.94 201.47 159.31 206.03 C 161.30 201.13 163.68 196.40 166.15 191.72 C 206.07 214.87 250.91 228.03 295.94 236.98 C 299.90 237.59 304.00 238.79 307.96 237.55 C 319.99 234.43 331.68 230.10 342.90 224.76 C 357.15 218.09 370.65 208.79 379.70 195.70 C 383.87 189.02 387.39 181.12 386.65 173.11 C 386.69 172.56 386.77 171.45 386.81 170.90 C 387.78 170.56 388.71 170.15 389.62 169.67 C 390.13 166.12 389.83 162.52 389.89 158.95 C 387.97 158.57 385.59 159.19 384.12 157.61 L 383.81 157.69 C 382.80 153.39 380.40 149.64 378.03 145.98 C 372.03 136.54 363.72 128.87 355.18 121.79 C 337.60 107.94 317.62 97.52 297.08 88.83 C 269.94 77.89 241.82 69.26 213.09 63.66 C 212.26 62.63 212.27 61.40 212.48 60.16 C 211.36 59.67 210.24 59.17 209.12 58.68 Z" />
</g>
<g id="#b3b3b3ff">
<path fill="#b3b3b3" opacity="1.00" d=" M 209.12 58.68 C 210.24 59.17 211.36 59.67 212.48 60.16 C 212.27 61.40 212.26 62.63 213.09 63.66 C 212.39 65.36 212.87 67.24 212.99 69.00 C 214.74 83.66 215.80 98.40 217.32 113.08 C 218.26 118.25 217.98 123.63 219.75 128.63 C 228.04 119.08 232.45 106.87 239.82 96.71 C 243.46 95.89 247.24 96.42 250.94 96.38 C 251.73 108.92 253.05 121.43 253.59 133.98 C 254.55 142.04 255.01 150.14 255.30 158.25 C 296.18 158.80 337.09 158.11 377.97 158.55 C 379.95 158.61 381.91 158.23 383.81 157.69 L 384.12 157.61 C 385.59 159.19 387.97 158.57 389.89 158.95 C 389.83 162.52 390.13 166.12 389.62 169.67 C 388.71 170.15 387.78 170.56 386.81 170.90 C 386.77 171.45 386.69 172.56 386.65 173.11 C 386.40 172.43 385.91 171.06 385.67 170.37 C 382.13 169.86 378.56 169.56 374.98 169.63 C 329.88 169.46 284.77 170.23 239.68 169.43 C 238.93 158.21 237.60 147.04 236.42 135.87 C 229.24 149.10 221.69 162.12 214.19 175.16 C 213.05 177.31 211.23 178.96 209.38 180.50 C 204.96 179.39 199.89 180.63 195.78 179.06 C 195.16 163.60 196.46 148.05 195.37 132.60 C 191.24 141.02 187.10 149.43 182.77 157.74 C 177.53 169.21 171.75 180.42 166.15 191.72 C 163.68 196.40 161.30 201.13 159.31 206.03 C 154.94 201.47 151.50 196.09 146.88 191.76 C 147.94 188.42 149.62 185.34 151.21 182.24 C 165.55 151.57 179.48 120.70 194.13 90.18 C 198.14 80.75 203.17 71.79 206.75 62.18 C 207.93 61.30 208.57 60.00 209.12 58.68 Z" />
<path fill="#b3b3b3" opacity="1.00" d=" M 254.55 288.15 C 255.95 288.92 255.82 289.44 254.15 289.70 C 254.25 289.32 254.45 288.54 254.55 288.15 Z" />
</g>
</svg>
