<?xml version="1.0" encoding="UTF-8" ?>
<!DOCTYPE svg PUBLIC "-//W3C//DTD SVG 1.1//EN" "http://www.w3.org/Graphics/SVG/1.1/DTD/svg11.dtd">
<svg width="848pt" height="848pt" viewBox="0 0 848 848" version="1.1" xmlns="http://www.w3.org/2000/svg">
<g id="#000000ff">
<path fill="#000000" opacity="1.00" d=" M 409.28 4.42 C 457.50 2.73 506.03 9.30 551.99 24.02 C 619.72 45.58 681.64 84.88 730.21 136.75 C 777.52 187.04 812.16 249.18 829.81 315.95 C 850.17 392.57 848.36 474.97 824.43 550.57 C 806.19 608.48 775.07 662.26 734.10 707.05 C 696.72 748.03 651.17 781.53 600.86 804.89 C 533.92 836.17 458.60 848.89 385.07 842.06 C 312.78 835.54 242.37 809.66 183.03 767.86 C 126.14 728.00 79.36 673.83 48.33 611.67 C 29.65 574.40 16.62 534.30 9.83 493.16 C -2.00 421.80 4.70 347.36 29.70 279.44 C 45.80 235.48 69.39 194.29 99.07 158.08 C 153.42 91.51 228.63 42.20 311.52 19.39 C 343.37 10.55 376.26 5.55 409.28 4.42 M 324.99 35.25 C 239.14 56.81 161.30 108.13 107.16 178.09 C 58.69 240.17 29.23 316.88 23.93 395.48 L 23.26 395.48 C 23.26 401.10 23.25 406.71 23.14 412.33 C 21.44 465.89 30.72 519.77 50.21 569.69 C 63.54 603.89 81.66 636.21 103.77 665.50 C 127.85 625.99 151.89 586.46 175.95 546.93 C 143.67 508.30 111.43 469.63 79.14 431.00 C 102.50 431.00 125.85 431.00 149.21 431.00 C 169.76 455.76 190.33 480.51 210.91 505.25 C 212.90 505.24 214.89 505.25 216.89 505.26 C 237.33 480.53 257.70 455.76 278.09 431.00 C 301.82 431.00 325.55 431.00 349.28 431.00 C 319.83 470.58 290.34 510.13 260.91 549.72 C 309.23 641.40 357.42 733.15 405.88 824.76 C 472.41 827.63 539.67 814.06 599.51 784.72 C 651.97 759.24 698.52 721.98 735.43 676.87 C 753.86 653.77 770.35 628.97 783.29 602.39 C 791.02 586.91 797.71 570.92 803.34 554.56 C 830.40 476.25 832.23 389.51 808.66 310.09 C 789.08 243.55 751.66 182.44 701.55 134.51 C 651.92 86.80 589.83 52.12 523.05 35.26 C 458.40 18.80 389.64 18.80 324.99 35.25 M 122.41 688.37 C 135.96 703.83 150.71 718.24 166.47 731.45 C 221.09 777.41 288.22 808.36 358.70 819.79 C 312.64 744.16 266.57 668.55 220.51 592.93 C 187.76 624.69 155.16 656.60 122.41 688.37 Z" />
<path fill="#000000" opacity="1.00" d=" M 32.53 395.49 C 51.19 378.77 69.86 362.07 88.58 345.41 C 96.92 352.36 105.23 359.34 113.61 366.24 C 179.80 366.77 245.99 367.29 312.19 367.61 C 317.27 360.21 322.33 352.79 327.45 345.42 C 345.10 360.01 362.71 374.64 380.35 389.24 C 378.82 391.33 377.28 393.42 375.73 395.50 C 261.33 395.49 146.93 395.51 32.53 395.49 Z" />
</g>
<g id="#fff700ff">
<path fill="#fff700" opacity="1.00" d=" M 324.99 35.25 C 389.64 18.80 458.40 18.80 523.05 35.26 C 589.83 52.12 651.92 86.80 701.55 134.51 C 751.66 182.44 789.08 243.55 808.66 310.09 C 832.23 389.51 830.40 476.25 803.34 554.56 C 797.71 570.92 791.02 586.91 783.29 602.39 C 757.31 455.81 731.30 309.23 705.30 162.64 C 670.50 262.61 635.87 362.64 601.10 462.61 C 582.07 418.24 563.18 373.80 544.17 329.42 C 520.92 373.79 497.91 418.28 474.70 462.66 C 461.26 433.55 447.87 404.42 434.46 375.29 C 427.24 381.85 420.63 389.13 413.20 395.41 C 400.72 395.63 388.22 395.43 375.73 395.50 C 377.28 393.42 378.82 391.33 380.35 389.24 C 362.71 374.64 345.10 360.01 327.45 345.42 C 322.33 352.79 317.27 360.21 312.19 367.61 C 245.99 367.29 179.80 366.77 113.61 366.24 C 105.23 359.34 96.92 352.36 88.58 345.41 C 69.86 362.07 51.19 378.77 32.53 395.49 C 29.66 395.49 26.80 395.50 23.93 395.48 C 29.23 316.88 58.69 240.17 107.16 178.09 C 161.30 108.13 239.14 56.81 324.99 35.25 Z" />
<path fill="#fff700" opacity="1.00" d=" M 23.14 412.33 C 23.39 418.55 23.17 424.77 23.27 430.99 C 41.90 431.01 60.52 430.99 79.14 431.00 C 111.43 469.63 143.67 508.30 175.95 546.93 C 151.89 586.46 127.85 625.99 103.77 665.50 C 81.66 636.21 63.54 603.89 50.21 569.69 C 30.72 519.77 21.44 465.89 23.14 412.33 Z" />
<path fill="#fff700" opacity="1.00" d=" M 688.60 417.42 C 703.89 503.96 720.17 590.32 735.43 676.87 C 698.52 721.98 651.97 759.24 599.51 784.72 C 539.67 814.06 472.41 827.63 405.88 824.76 C 357.42 733.15 309.23 641.40 260.91 549.72 C 290.34 510.13 319.83 470.58 349.28 431.00 C 372.61 430.96 395.93 431.09 419.25 430.93 C 441.17 469.75 462.63 508.85 484.42 547.75 C 503.88 508.90 523.29 470.02 542.73 431.16 C 563.19 483.45 583.48 535.81 603.93 588.11 C 615.11 588.14 626.29 588.25 637.47 588.32 C 641.04 577.50 644.03 566.49 647.37 555.60 C 661.12 509.54 674.82 463.47 688.60 417.42 Z" />
<path fill="#fff700" opacity="1.00" d=" M 149.21 431.00 C 192.17 431.00 235.13 431.00 278.09 431.00 C 257.70 455.76 237.33 480.53 216.89 505.26 C 214.89 505.25 212.90 505.24 210.91 505.25 C 190.33 480.51 169.76 455.76 149.21 431.00 Z" />
<path fill="#fff700" opacity="1.00" d=" M 122.41 688.37 C 155.16 656.60 187.76 624.69 220.51 592.93 C 266.57 668.55 312.64 744.16 358.70 819.79 C 288.22 808.36 221.09 777.41 166.47 731.45 C 150.71 718.24 135.96 703.83 122.41 688.37 Z" />
</g>
<g id="#e54141ff">
<path fill="#e54141" opacity="1.00" d=" M 601.10 462.61 C 635.87 362.64 670.50 262.61 705.30 162.64 C 731.30 309.23 757.31 455.81 783.29 602.39 C 770.35 628.97 753.86 653.77 735.43 676.87 C 720.17 590.32 703.89 503.96 688.60 417.42 C 674.82 463.47 661.12 509.54 647.37 555.60 C 644.03 566.49 641.04 577.50 637.47 588.32 C 626.29 588.25 615.11 588.14 603.93 588.11 C 583.48 535.81 563.19 483.45 542.73 431.16 C 523.29 470.02 503.88 508.90 484.42 547.75 C 462.63 508.85 441.17 469.75 419.25 430.93 C 395.93 431.09 372.61 430.96 349.28 431.00 C 325.55 431.00 301.82 431.00 278.09 431.00 C 235.13 431.00 192.17 431.00 149.21 431.00 C 125.85 431.00 102.50 431.00 79.14 431.00 C 60.52 430.99 41.90 431.01 23.27 430.99 C 23.17 424.77 23.39 418.55 23.14 412.33 C 23.25 406.71 23.26 401.10 23.26 395.48 L 23.93 395.48 C 26.80 395.50 29.66 395.49 32.53 395.49 C 146.93 395.51 261.33 395.49 375.73 395.50 C 388.22 395.43 400.72 395.63 413.20 395.41 C 420.63 389.13 427.24 381.85 434.46 375.29 C 447.87 404.42 461.26 433.55 474.70 462.66 C 497.91 418.28 520.92 373.79 544.17 329.42 C 563.18 373.80 582.07 418.24 601.10 462.61 Z" />
</g>
</svg>
