<?xml version="1.0" encoding="UTF-8" ?>
<!DOCTYPE svg PUBLIC "-//W3C//DTD SVG 1.1//EN" "http://www.w3.org/Graphics/SVG/1.1/DTD/svg11.dtd">
<svg width="321pt" height="157pt" viewBox="0 0 321 157" version="1.1" xmlns="http://www.w3.org/2000/svg">
<g id="#ffffffff">
<path fill="#ffffff" opacity="1.00" d=" M 8.38 86.14 C 10.81 84.73 13.33 85.56 14.65 87.98 C 12.49 87.61 10.35 87.12 8.38 86.14 Z" />
<path fill="#ffffff" opacity="1.00" d=" M 24.32 87.06 C 25.54 83.96 28.80 85.47 30.57 87.03 C 28.49 87.12 26.41 87.14 24.32 87.06 Z" />
</g>
<g id="#48aff4ff">
<path fill="#48aff4" opacity="1.00" d=" M 270.38 20.09 C 278.80 20.09 287.22 20.10 295.64 20.09 C 295.61 27.89 295.63 35.69 295.60 43.49 C 304.07 43.56 312.53 43.52 321.00 43.53 L 321.00 66.82 C 312.55 66.81 304.09 66.81 295.64 66.82 C 295.46 75.98 295.94 85.16 295.36 94.31 C 294.14 108.65 285.23 121.72 273.02 129.09 C 261.01 136.37 246.08 138.91 232.42 135.42 C 216.87 131.88 202.88 120.77 197.24 105.68 C 192.63 93.82 193.78 80.02 199.98 68.94 C 207.16 55.85 220.79 47.00 235.36 44.42 C 246.96 42.73 258.73 43.86 270.41 43.51 C 270.36 35.71 270.38 27.90 270.38 20.09 M 238.06 67.83 C 230.18 69.74 223.28 75.70 220.65 83.42 C 218.86 89.34 219.33 96.08 222.58 101.42 C 227.34 109.44 236.77 114.19 246.04 113.65 C 257.91 113.56 269.52 104.09 270.29 91.92 C 270.61 83.55 270.34 75.17 270.39 66.81 C 263.59 66.78 256.80 66.82 250.01 66.77 C 246.01 66.75 241.95 66.77 238.06 67.83 Z" />
<path fill="#48aff4" opacity="1.00" d=" M 22.82 71.81 C 23.84 70.05 24.86 68.30 25.90 66.55 C 27.38 67.67 28.85 68.82 30.32 69.98 C 29.44 71.72 28.55 73.45 27.64 75.17 C 26.04 74.04 24.41 72.95 22.82 71.81 Z" />
<path fill="#48aff4" opacity="1.00" d=" M 144.14 69.89 C 146.29 69.75 148.44 69.59 150.60 69.43 C 151.19 78.00 151.06 86.60 150.98 95.18 C 148.80 95.60 146.62 95.99 144.44 96.37 C 144.67 87.54 144.51 78.71 144.14 69.89 Z" />
<path fill="#48aff4" opacity="1.00" d=" M 179.22 69.92 C 181.35 69.76 183.48 69.57 185.61 69.40 C 186.12 77.98 186.25 86.58 186.07 95.18 C 183.87 95.61 181.67 95.99 179.47 96.36 C 179.90 87.55 179.46 78.73 179.22 69.92 Z" />
<path fill="#48aff4" opacity="1.00" d=" M 64.50 74.07 C 65.62 72.37 66.77 70.70 67.92 69.02 C 69.18 70.28 70.92 71.24 71.65 72.94 C 71.04 74.69 70.08 76.29 69.16 77.89 C 67.60 76.63 66.04 75.36 64.50 74.07 Z" />
<path fill="#48aff4" opacity="1.00" d=" M 76.45 69.85 C 78.65 69.73 80.86 69.60 83.06 69.47 C 83.33 78.05 83.39 86.63 83.24 95.21 C 81.06 95.61 78.87 95.99 76.69 96.36 C 76.89 87.52 76.78 78.68 76.45 69.85 Z" />
<path fill="#48aff4" opacity="1.00" d=" M 99.42 69.82 C 100.72 70.73 101.98 71.70 103.22 72.70 C 103.68 71.98 104.60 70.54 105.06 69.82 C 106.51 70.83 107.88 71.94 109.31 72.99 C 108.37 74.58 107.37 76.13 106.41 77.70 C 105.14 76.78 103.89 75.83 102.62 74.92 C 101.86 75.84 101.11 76.77 100.35 77.69 C 99.08 76.52 97.80 75.36 96.53 74.19 C 97.49 72.73 98.45 71.27 99.42 69.82 Z" />
<path fill="#48aff4" opacity="1.00" d=" M 129.19 70.43 C 130.67 71.53 132.22 72.58 133.37 74.05 C 132.82 75.89 131.90 77.70 130.32 78.87 C 128.83 77.79 127.47 76.55 126.13 75.31 C 127.13 73.67 128.14 72.04 129.19 70.43 Z" />
<path fill="#48aff4" opacity="1.00" d=" M 9.99 78.98 C 11.60 77.79 14.04 78.02 15.39 79.51 C 17.40 81.59 17.65 84.66 18.36 87.32 C 18.98 87.31 20.21 87.27 20.83 87.25 C 21.69 84.06 22.42 80.29 25.55 78.51 C 27.93 76.96 31.13 78.45 32.16 80.91 C 33.03 83.07 33.23 85.42 33.65 87.70 C 36.91 87.57 39.25 85.54 40.06 82.41 C 40.91 82.34 41.75 82.28 42.60 82.22 C 43.65 84.07 43.50 88.25 46.53 87.57 C 48.81 87.03 49.23 84.24 50.27 82.50 C 50.90 82.61 52.16 82.83 52.79 82.95 C 53.45 84.81 54.16 86.66 54.96 88.48 C 56.51 86.74 57.29 84.57 57.89 82.36 C 58.80 82.29 59.71 82.23 60.62 82.17 C 60.99 83.90 61.39 85.62 61.82 87.34 C 63.89 87.30 65.96 87.23 68.02 87.13 C 67.57 85.32 67.09 83.52 66.62 81.72 C 68.81 81.14 71.01 80.57 73.21 80.00 C 74.20 85.01 73.96 90.18 72.21 95.00 C 67.64 95.77 62.15 97.41 58.48 93.56 C 57.19 94.70 55.97 96.47 53.98 95.99 C 52.85 95.32 51.92 94.36 50.88 93.57 C 49.34 94.45 47.94 95.82 46.10 96.02 C 43.75 96.40 41.91 94.67 40.04 93.58 C 38.18 94.69 36.33 96.52 33.96 95.78 C 28.30 94.91 22.64 96.45 16.96 96.05 C 15.41 100.23 13.42 104.22 11.05 107.99 C 8.97 106.42 6.92 104.81 4.91 103.15 C 6.88 100.68 8.79 98.16 10.68 95.62 C 8.37 93.95 5.26 92.30 5.14 89.06 C 5.07 85.22 6.85 81.25 9.99 78.98 M 8.38 86.14 C 10.35 87.12 12.49 87.61 14.65 87.98 C 13.33 85.56 10.81 84.73 8.38 86.14 M 24.32 87.06 C 26.41 87.14 28.49 87.12 30.57 87.03 C 28.80 85.47 25.54 83.96 24.32 87.06 Z" />
<path fill="#48aff4" opacity="1.00" d=" M 101.62 81.70 C 103.83 81.13 106.03 80.57 108.24 80.00 C 108.75 84.86 109.61 90.41 106.85 94.74 C 102.59 96.25 97.96 96.05 93.52 95.87 C 91.93 100.07 90.28 104.24 88.49 108.36 C 86.35 106.85 84.28 105.23 82.28 103.53 C 85.55 98.31 88.26 92.74 89.99 86.81 C 94.32 87.43 98.71 87.45 103.04 86.93 C 102.58 85.18 102.11 83.44 101.62 81.70 Z" />
<path fill="#48aff4" opacity="1.00" d=" M 169.46 81.62 C 171.62 81.09 173.79 80.56 175.96 80.05 C 176.82 85.00 176.57 90.08 175.04 94.89 C 170.45 95.83 165.76 96.21 161.08 95.93 C 159.72 100.20 158.02 104.36 156.11 108.41 C 154.08 106.89 152.08 105.34 150.08 103.78 C 153.08 98.32 155.96 92.76 157.79 86.79 C 162.05 87.35 166.36 87.43 170.65 87.13 C 170.29 85.29 169.93 83.44 169.46 81.62 Z" />
<path fill="#48aff4" opacity="1.00" d=" M 133.69 82.44 C 135.91 81.81 138.11 81.13 140.33 80.48 C 141.42 87.67 142.97 96.04 138.70 102.48 C 134.09 104.30 128.82 105.04 123.99 103.69 C 120.89 102.84 118.72 99.97 118.16 96.88 C 117.28 91.59 118.79 86.30 120.41 81.31 C 122.21 82.01 124.01 82.71 125.81 83.40 C 125.13 87.22 122.92 91.92 126.11 95.18 C 128.97 96.29 132.04 95.36 134.96 95.05 C 134.75 90.83 134.33 86.62 133.69 82.44 Z" />
<path fill="#48aff4" opacity="1.00" d=" M 163.88 103.84 C 163.92 102.05 165.23 100.57 165.91 98.98 C 167.28 99.91 168.64 100.85 169.99 101.81 C 170.51 101.12 171.56 99.75 172.08 99.06 C 173.40 100.05 174.71 101.06 176.01 102.08 C 175.14 103.74 174.23 105.39 173.27 107.01 C 171.99 106.00 170.67 105.06 169.39 104.06 C 168.67 105.07 167.97 106.08 167.25 107.08 C 166.10 106.03 164.91 105.01 163.88 103.84 Z" />
</g>
</svg>
