<?xml version="1.0" encoding="UTF-8" ?>
<!DOCTYPE svg PUBLIC "-//W3C//DTD SVG 1.1//EN" "http://www.w3.org/Graphics/SVG/1.1/DTD/svg11.dtd">
<svg width="480pt" height="480pt" viewBox="0 0 480 480" version="1.1" xmlns="http://www.w3.org/2000/svg">
<g id="#263238ff">
<path fill="#263238" opacity="1.00" d=" M 98.89 95.92 C 107.76 65.17 141.62 44.55 173.02 51.10 C 187.78 54.61 202.88 57.10 217.35 61.54 C 169.86 67.42 125.37 93.33 96.67 131.60 C 93.59 135.32 91.34 139.66 88.08 143.24 C 91.55 127.44 94.94 111.61 98.89 95.92 Z" />
<path fill="#263238" opacity="1.00" d=" M 336.77 88.11 C 352.58 91.50 368.41 94.94 384.09 98.90 C 414.48 107.67 434.99 140.85 429.07 171.97 C 425.63 187.11 422.88 202.51 418.46 217.36 C 412.58 169.86 386.67 125.38 348.41 96.67 C 344.68 93.60 340.37 91.33 336.77 88.11 Z" />
<path fill="#263238" opacity="1.00" d=" M 51.10 306.97 C 54.59 292.21 57.15 277.14 61.54 262.65 C 67.43 310.40 93.63 355.08 132.21 383.77 C 135.74 386.69 139.89 388.77 143.23 391.92 C 127.19 388.30 111.04 385.01 95.13 380.85 C 64.78 371.64 44.63 338.09 51.10 306.97 Z" />
<path fill="#263238" opacity="1.00" d=" M 383.32 348.39 C 386.40 344.68 388.64 340.34 391.91 336.79 C 388.32 352.83 385.03 368.97 380.84 384.88 C 371.63 415.22 338.09 435.34 306.98 428.90 C 292.21 425.42 277.14 422.80 262.63 418.46 C 310.13 412.59 354.62 386.67 383.32 348.39 Z" />
</g>
<g id="#ca215cff">
<path fill="#ca215c" opacity="1.00" d=" M 225.45 80.67 C 259.43 77.45 294.38 85.53 323.44 103.44 C 349.82 119.54 371.35 143.45 384.57 171.38 C 400.46 204.61 404.24 243.41 395.16 279.09 C 387.21 311.11 368.91 340.42 343.78 361.76 C 319.50 382.61 288.79 395.85 256.95 399.09 C 220.03 403.17 181.81 393.74 151.02 372.97 C 124.42 355.21 103.35 329.30 91.47 299.60 C 78.93 268.50 76.59 233.41 84.82 200.90 C 93.05 167.69 112.45 137.44 139.01 115.90 C 163.46 95.90 193.98 83.43 225.45 80.67 M 194.35 130.44 C 178.95 132.46 165.45 144.34 161.49 159.36 C 154.45 181.85 171.70 207.43 195.07 209.65 C 209.99 211.68 225.61 204.31 233.61 191.58 C 242.03 178.80 242.03 161.19 233.61 148.41 C 225.48 135.47 209.48 128.08 194.35 130.44 M 304.36 160.43 C 293.24 161.96 283.00 168.48 276.78 177.80 C 268.27 190.23 267.79 207.50 275.63 220.37 C 283.78 234.43 301.06 242.48 317.05 239.31 C 332.14 236.79 345.08 224.77 348.68 209.91 C 351.90 197.92 348.93 184.53 341.10 174.93 C 332.51 164.10 318.04 158.34 304.36 160.43 M 236.28 220.35 C 225.77 222.11 218.10 233.26 220.36 243.71 C 222.05 253.64 232.08 261.14 242.09 259.88 C 252.35 258.98 260.71 249.20 259.97 238.92 C 259.62 227.28 247.70 217.83 236.28 220.35 M 164.35 240.44 C 148.94 242.46 135.45 254.35 131.49 269.36 C 127.99 281.54 130.89 295.27 138.91 305.06 C 147.99 316.51 163.69 322.29 178.00 319.12 C 192.70 316.32 205.14 304.43 208.68 289.91 C 211.91 277.92 208.93 264.53 201.10 254.93 C 192.50 244.11 178.03 238.34 164.35 240.44 M 274.36 270.43 C 259.19 272.43 245.86 283.97 241.68 298.68 C 234.15 321.30 251.42 347.43 275.07 349.65 C 289.74 351.65 305.10 344.55 313.21 332.19 C 321.86 319.56 322.18 301.94 313.99 289.01 C 305.97 275.72 289.73 268.04 274.36 270.43 Z" />
</g>
</svg>
